<svg id="Capa_1" enable-background="new 0 0 512 512" fill="#457b9d" height="512" viewBox="0 0 512 512" width="512" xmlns="http://www.w3.org/2000/svg"><g><path d="m496.5 463.867h-1.066v-448.367c0-8.547-6.953-15.5-15.5-15.5h-33.7c-8.547 0-15.5 6.953-15.5 15.5v34.217h-108.417c3.519-8.693 1.76-19.041-5.277-26.079-9.385-9.384-24.651-9.383-34.036 0l-24.219 24.219c-1.193-2.826-2.93-5.424-5.164-7.658-4.546-4.546-10.59-7.049-17.019-7.049-6.428 0-12.472 2.503-17.017 7.049l-7.66 7.66c-1.193-2.827-2.931-5.425-5.165-7.66-4.546-4.546-10.59-7.049-17.018-7.049-2.789 0-5.506.473-8.059 1.378l-24.613-24.613c-4.546-4.546-10.59-7.049-17.019-7.049s-12.473 2.503-17.018 7.049c-9.383 9.383-9.383 24.652 0 34.035l5.767 5.768h-47.533v-34.218c0-8.547-6.953-15.5-15.5-15.5h-33.7c-8.547 0-15.5 6.953-15.5 15.5v448.367h-1.067c-8.547 0-15.5 6.953-15.5 15.5v17.133c0 8.547 6.953 15.5 15.5 15.5h40.767c4.142 0 7.5-3.358 7.5-7.5s-3.358-7.5-7.5-7.5h-40.767c-.275 0-.5-.224-.5-.5v-17.133c0-.276.225-.5.5-.5h481c.275 0 .5.224.5.5v17.133c0 .276-.225.5-.5.5h-405.233c-4.143 0-7.5 3.358-7.5 7.5s3.357 7.5 7.5 7.5h405.233c8.547 0 15.5-6.953 15.5-15.5v-17.133c0-8.547-6.953-15.5-15.5-15.5zm-464.934-415.734h34.7v382.6h-34.7zm163.393 224.911c4.546 4.546 10.59 7.049 17.019 7.049s12.473-2.504 17.017-7.049l24.236-24.236c1.193 2.827 2.931 5.425 5.165 7.659 4.692 4.692 10.854 7.038 17.018 7.038 6.162 0 12.326-2.346 17.017-7.037l7.659-7.658c1.193 2.826 2.931 5.424 5.165 7.658 4.692 4.692 10.854 7.038 17.018 7.038 2.72 0 5.434-.485 8.028-1.399l24.613 24.611c4.545 4.546 10.589 7.049 17.018 7.049s12.473-2.503 17.019-7.049c9.383-9.383 9.383-24.652-.001-34.036l-5.732-5.732h47.517v100.967h-108.417c3.519-8.693 1.759-19.041-5.278-26.079-9.384-9.383-24.653-9.384-34.035-.001l-24.219 24.219c-1.193-2.826-2.93-5.423-5.164-7.658-9.384-9.383-24.653-9.384-34.035-.001l-7.66 7.66c-1.193-2.827-2.931-5.425-5.165-7.659-4.546-4.546-10.59-7.049-17.018-7.049-2.789 0-5.506.473-8.059 1.378l-24.614-24.614c-4.545-4.545-10.589-7.048-17.018-7.048s-12.473 2.503-17.018 7.049c-9.383 9.384-9.383 24.652 0 34.035l5.767 5.767h-47.535v-100.966h108.422c-3.528 8.696-1.772 19.052 5.27 26.094zm160.446-32.691 22.937 22.937c3.535 3.535 3.535 9.287 0 12.822-1.712 1.712-3.989 2.655-6.411 2.655s-4.698-.943-6.411-2.656l-22.937-22.936zm-198.794 114.161-22.969-22.97c-3.535-3.535-3.535-9.288 0-12.823 1.712-1.712 3.988-2.655 6.41-2.655s4.699.943 6.411 2.655l22.97 22.971c-2.991 2.991-7.618 7.617-12.822 12.822zm-75.344 8.403h62.534l2.203 2.203c-5.882 5.883-11.626 11.627-15.93 15.93h-48.807zm52.356 35.798c.6-.6 2.351-2.352 4.858-4.859.002-.001.003-.003.005-.005 5.537-5.538 14.759-14.76 23.425-23.426.001-.001.002-.001.002-.002.001-.001.001-.001.002-.003 10.314-10.314 19.838-19.837 21.416-21.415 1.768-1.768 4.089-2.651 6.411-2.651 2.321 0 4.643.884 6.41 2.651 3.535 3.535 3.535 9.287 0 12.822l-49.709 49.709c-3.535 3.535-9.286 3.536-12.821 0-1.713-1.712-2.656-3.989-2.656-6.411s.944-4.697 2.657-6.41zm63.435-16.575 33.135-33.134c1.768-1.768 4.089-2.651 6.411-2.651 2.321 0 4.643.884 6.41 2.651 3.535 3.535 3.535 9.287 0 12.822l-33.134 33.133c-3.534 3.535-9.285 3.536-12.821 0-3.536-3.535-3.536-9.287-.001-12.821zm46.858 0 49.695-49.695c1.768-1.768 4.089-2.651 6.41-2.651 2.322 0 4.644.884 6.411 2.651 3.535 3.535 3.535 9.287 0 12.822v.001c-.599.599-2.342 2.343-4.839 4.839-.005.005-.01.01-.015.015-5.533 5.533-14.752 14.752-23.417 23.417-.002.001-.003.003-.005.004-.002.002-.003.003-.005.005-10.312 10.312-19.836 19.836-21.414 21.414-3.535 3.536-9.286 3.535-12.821 0-3.534-3.536-3.534-9.288 0-12.822zm39.545 7.313 22.937 22.937c3.535 3.535 3.535 9.287 0 12.822-3.535 3.536-9.287 3.535-12.822-.001l-22.937-22.936c2.991-2.992 7.618-7.618 12.822-12.822zm10.607-10.607c5.884-5.883 11.628-11.628 15.929-15.929h120.737v18.133h-134.462zm136.665-146.896h-62.517l-2.205-2.204 15.929-15.929h48.793zm-52.356-35.783-49.694 49.694c-3.536 3.537-9.288 3.535-12.822-.001-1.712-1.712-2.655-3.989-2.655-6.411s.943-4.699 2.655-6.411l49.695-49.695c1.768-1.768 4.089-2.651 6.41-2.651 2.322 0 4.644.884 6.411 2.651 3.535 3.537 3.535 9.289 0 12.824zm-63.418 16.561-33.135 33.134c-3.535 3.537-9.287 3.535-12.822-.001-1.712-1.712-2.655-3.989-2.655-6.411s.943-4.699 2.655-6.411l33.135-33.134c1.768-1.768 4.089-2.651 6.411-2.651 2.321 0 4.643.884 6.41 2.651 1.713 1.712 2.656 3.989 2.656 6.411 0 2.423-.943 4.7-2.655 6.412zm-46.86 0c0 .001-.001.001-.001.001l-49.71 49.71c-1.712 1.712-3.988 2.655-6.41 2.655s-4.699-.943-6.411-2.656c-3.535-3.535-3.535-9.287 0-12.822l4.859-4.859.005-.005 44.845-44.845c1.768-1.768 4.089-2.651 6.411-2.651 2.321 0 4.642.884 6.41 2.651 1.713 1.712 2.656 3.989 2.656 6.411.001 2.421-.943 4.698-2.654 6.41zm-39.545-7.314-4.393-4.393c-.004-.004-.009-.009-.013-.013l-18.563-18.564c-3.535-3.535-3.535-9.287 0-12.822 1.712-1.712 3.989-2.655 6.411-2.655s4.698.943 6.411 2.656l22.969 22.969zm-10.606 10.606-15.931 15.93h-120.75v-18.133h134.479zm-136.681 180.03h36.467c-1.157 2.844-1.766 5.913-1.766 9.076 0 6.428 2.504 12.472 7.049 17.018 4.692 4.692 10.854 7.038 17.018 7.038s12.327-2.346 17.018-7.038l24.234-24.234c1.193 2.826 2.931 5.424 5.165 7.659 4.546 4.546 10.59 7.049 17.019 7.049 6.428 0 12.472-2.503 17.017-7.049l7.676-7.676c1.171 2.79 2.879 5.407 5.147 7.675 4.692 4.692 10.855 7.038 17.019 7.038 2.72 0 5.434-.485 8.028-1.399l24.612 24.612c4.692 4.692 10.855 7.038 17.019 7.038 6.162 0 12.325-2.346 17.017-7.038 9.383-9.383 9.383-24.652 0-34.035l-5.733-5.733h119.461v67.816h-349.467zm364.466-347.917h34.7v382.6h-34.7zm.5-33.133h33.7c.275 0 .5.224.5.5v17.633h-34.7v-17.633c0-.276.225-.5.5-.5zm-15.5 67.851h-37.691c-4.143 0-7.5 3.358-7.5 7.5s3.357 7.5 7.5 7.5h37.691v100.966h-36.471c3.519-8.693 1.759-19.041-5.278-26.079-9.385-9.384-24.651-9.383-34.036 0l-24.219 24.219c-1.193-2.826-2.93-5.423-5.164-7.657-4.546-4.546-10.59-7.049-17.019-7.049-6.428 0-12.472 2.503-17.018 7.049l-7.659 7.659c-1.193-2.827-2.931-5.424-5.165-7.659-6.763-6.762-16.575-8.625-25.046-5.639l-24.646-24.645c-4.545-4.546-10.589-7.049-17.018-7.049s-12.473 2.503-17.019 7.049c-9.383 9.383-9.383 24.652.001 34.036l5.766 5.766h-119.475v-100.967h36.478c-3.527 8.696-1.77 19.052 5.271 26.093 4.546 4.546 10.59 7.049 17.019 7.049 6.428 0 12.472-2.503 17.018-7.05l24.234-24.234c1.193 2.827 2.931 5.425 5.165 7.659 4.692 4.692 10.855 7.038 17.019 7.038 6.162 0 12.325-2.346 17.018-7.038l7.658-7.658c1.193 2.826 2.93 5.424 5.164 7.658 4.692 4.692 10.855 7.038 17.018 7.038 2.721 0 5.435-.485 8.03-1.399l24.612 24.612c4.692 4.692 10.855 7.038 17.019 7.038 6.162 0 12.325-2.346 17.017-7.038 9.383-9.383 9.383-24.652-.001-34.036l-5.732-5.731h46.77c4.143 0 7.5-3.358 7.5-7.5s-3.357-7.5-7.5-7.5h-61.77l-2.205-2.205 15.928-15.929h120.737v18.133zm-147.272 8.402 4.398 4.398c.002.002.004.004.006.006l18.533 18.533c3.535 3.535 3.535 9.287 0 12.822-3.535 3.536-9.287 3.535-12.822-.001l-22.936-22.936zm10.15-57.008c1.768-1.768 4.089-2.651 6.41-2.651 2.322 0 4.644.884 6.411 2.651 3.535 3.535 3.535 9.288 0 12.823l-49.694 49.694c-3.535 3.536-9.286 3.535-12.821 0-1.713-1.712-2.656-3.989-2.656-6.411s.943-4.699 2.656-6.411zm-63.419 16.561c1.768-1.768 4.089-2.651 6.41-2.651 2.322 0 4.645.884 6.412 2.652 1.712 1.712 2.655 3.989 2.655 6.411 0 2.421-.943 4.698-2.655 6.411l-33.134 33.133c-3.534 3.534-9.285 3.536-12.821 0-1.713-1.712-2.656-3.989-2.656-6.411s.943-4.699 2.656-6.411zm-34.038.001c1.712 1.712 2.655 3.989 2.655 6.411s-.943 4.699-2.656 6.411l.001-.001-49.71 49.709c-3.535 3.534-9.286 3.536-12.821 0-3.535-3.535-3.535-9.287 0-12.823l49.709-49.709c1.768-1.768 4.089-2.651 6.41-2.651 2.322.001 4.645.885 6.412 2.653zm-62.512-30.286c1.712-1.712 3.988-2.655 6.41-2.655s4.699.943 6.411 2.655l22.97 22.971-12.822 12.822-22.969-22.97c-3.536-3.535-3.536-9.287 0-12.823zm10.159 44.196 2.203 2.203-15.93 15.93h-48.807v-18.133zm-111.735-49.717h33.7c.275 0 .5.224.5.5v17.633h-34.7v-17.633c0-.276.225-.5.5-.5zm-.5 448.867v-18.133h34.7v18.133zm414.167 0v-18.133h34.7v18.133z"/></g></svg>